<svg class="wave-svg" id="visual"
viewBox="0 0 960 540"
width="960" height="540"
xmlns="http://www.w3.org/2000/svg"
xmlns:xlink="http://www.w3.org/1999/xlink"
version="1.1">
<rect x="0"
y="0"
width="960"
height="540"
fill="#001220">
</rect>
<path d="M0 315L22.8 320.2C45.7 325.3 91.3 335.7 137 344.2C182.7 352.7 228.3 359.3 274 365.5C319.7 371.7 365.3 377.3 411.2 370.8C457 364.3 503 345.7 548.8 344.8C594.7 344 640.3 361 686 371.2C731.7 381.3 777.3 384.7 823 381.2C868.7 377.7 914.3 367.3 937.2 362.2L960 357L960 541L937.2 541C914.3 541 868.7 541 823 541C777.3 541 731.7 541 686 541C640.3 541 594.7 541 548.8 541C503 541 457 541 411.2 541C365.3 541 319.7 541 274 541C228.3 541 182.7 541 137 541C91.3 541 45.7 541 22.8 541L0 541Z" fill="#fa7268"></path>
<path d="M0 426L22.8 422.5C45.7 419 91.3 412 137 402.3C182.7 392.7 228.3 380.3 274 384.2C319.7 388 365.3 408 411.2 415.5C457 423 503 418 548.8 410.2C594.7 402.3 640.3 391.7 686 382.8C731.7 374 777.3 367 823 367.3C868.7 367.7 914.3 375.3 937.2 379.2L960 383L960 541L937.2 541C914.3 541 868.7 541 823 541C777.3 541 731.7 541 686 541C640.3 541 594.7 541 548.8 541C503 541 457 541 411.2 541C365.3 541 319.7 541 274 541C228.3 541 182.7 541 137 541C91.3 541 45.7 541 22.8 541L0 541Z" fill="#ef5f67"></path>
<path d="M0 425L22.8 428.7C45.7 432.3 91.3 439.7 137 439.7C182.7 439.7 228.3 432.3 274 424.3C319.7 416.3 365.3 407.7 411.2 410.3C457 413 503 427 548.8 433.5C594.7 440 640.3 439 686 439.7C731.7 440.3 777.3 442.7 823 441.5C868.7 440.3 914.3 435.7 937.2 433.3L960 431L960 541L937.2 541C914.3 541 868.7 541 823 541C777.3 541 731.7 541 686 541C640.3 541 594.7 541 548.8 541C503 541 457 541 411.2 541C365.3 541 319.7 541 274 541C228.3 541 182.7 541 137 541C91.3 541 45.7 541 22.8 541L0 541Z" fill="#e34c67"></path>
<path d="M0 438L22.8 439.7C45.7 441.3 91.3 444.7 137 452C182.7 459.3 228.3 470.7 274 468.7C319.7 466.7 365.3 451.3 411.2 445.2C457 439 503 442 548.8 442.7C594.7 443.3 640.3 441.7 686 439.5C731.7 437.3 777.3 434.7 823 442.5C868.7 450.3 914.3 468.7 937.2 477.8L960 487L960 541L937.2 541C914.3 541 868.7 541 823 541C777.3 541 731.7 541 686 541C640.3 541 594.7 541 548.8 541C503 541 457 541 411.2 541C365.3 541 319.7 541 274 541C228.3 541 182.7 541 137 541C91.3 541 45.7 541 22.8 541L0 541Z" fill="#d53867"></path>
<path d="M0 472L22.8 475C45.7 478 91.3 484 137 484.2C182.7 484.3 228.3 478.7 274 479.7C319.7 480.7 365.3 488.3 411.2 494.7C457 501 503 506 548.8 505.3C594.7 504.7 640.3 498.3 686 494.7C731.7 491 777.3 490 823 489.3C868.7 488.7 914.3 488.3 937.2 488.2L960 488L960 541L937.2 541C914.3 541 868.7 541 823 541C777.3 541 731.7 541 686 541C640.3 541 594.7 541 548.8 541C503 541 457 541 411.2 541C365.3 541 319.7 541 274 541C228.3 541 182.7 541 137 541C91.3 541 45.7 541 22.8 541L0 541Z" fill="#c62368"></path>
</svg>